<?xml version="1.0" encoding="utf-8"?>
<!-- Generator: Adobe Illustrator 25.2.1, SVG Export Plug-In . SVG Version: 6.00 Build 0)  -->
<svg version="1.1" id="Layer_1" xmlns="http://www.w3.org/2000/svg" xmlns:xlink="http://www.w3.org/1999/xlink" x="0px" y="0px"
	 viewBox="0 0 560 288" style="enable-background:new 0 0 560 288;" xml:space="preserve">
<style type="text/css">
	.st0{enable-background:new    ;}
	.st1{clip-path:url(#SVGID_2_);fill:#FFC800;}
	.st2{opacity:0.2745;clip-path:url(#SVGID_2_);fill:#0000FF;}
	.st3{clip-path:url(#SVGID_2_);fill:none;stroke:#FF0000;stroke-width:2.8224;}
	.st4{clip-path:url(#SVGID_2_);fill-rule:evenodd;clip-rule:evenodd;fill:#FF0000;}
	.st5{clip-path:url(#SVGID_2_);fill:none;stroke:#FF0000;stroke-width:0.5292;stroke-linejoin:round;}
	.st6{clip-path:url(#SVGID_2_);fill:none;stroke:#FE0000;stroke-width:0.4125;}
	.st7{clip-path:url(#SVGID_2_);fill:none;stroke:#000000;stroke-width:0.6981;stroke-dasharray:1.3961,0.6981;}
	.st8{clip-path:url(#SVGID_2_);fill:none;stroke:#000000;stroke-width:0.7925;stroke-linecap:round;}
	.st9{clip-path:url(#SVGID_2_);}
	.st10{clip-path:url(#SVGID_2_);fill:#FFFFFF;}
	.st11{fill:none;}
	.st12{clip-path:url(#SVGID_2_);fill:none;stroke:#000000;stroke-width:0.7828;}
	.st13{fill-rule:evenodd;clip-rule:evenodd;fill:none;}
	.st14{font-family:'MyriadPro-Regular';}
	.st15{font-size:12px;}
	.st16{font-size:18.6362px;}
	.st17{opacity:0.29;clip-path:url(#SVGID_2_);fill:#FF0000;}
	.st18{clip-path:url(#SVGID_2_);fill:none;stroke:#000000;stroke-width:1.4677;}
	.st19{clip-path:url(#SVGID_2_);fill-rule:evenodd;clip-rule:evenodd;}
</style>
<g class="st0">
	<g>
		<defs>
			<rect id="SVGID_1_" x="60.11" y="66.33" width="512.9" height="185.93"/>
		</defs>
		<clipPath id="SVGID_2_">
			<use xlink:href="#SVGID_1_"  style="overflow:visible;"/>
		</clipPath>
		<rect x="62.93" y="133.6" class="st1" width="466.34" height="40.33"/>
		<rect x="62.99" y="174.04" class="st2" width="466.29" height="78.12"/>
		<line class="st3" x1="416.56" y1="133.56" x2="296.86" y2="133.56"/>
		<path class="st4" d="M401.69,124.21l25.3,9.31l-25.3,9.31C405.73,137.33,405.71,129.81,401.69,124.21z"/>
		<path class="st5" d="M401.69,124.21l25.3,9.31l-25.3,9.31C405.73,137.33,405.71,129.81,401.69,124.21z"/>
		<line class="st3" x1="169.87" y1="133.56" x2="289.56" y2="133.56"/>
		<path class="st4" d="M184.74,142.9l-25.31-9.3l25.31-9.31C180.69,129.78,180.72,137.3,184.74,142.9z"/>
		<path class="st5" d="M184.74,142.9l-25.31-9.3l25.31-9.31C180.69,129.78,180.72,137.3,184.74,142.9z"/>
		<line class="st6" x1="292.22" y1="174.33" x2="252.31" y2="212.81"/>
		<line class="st6" x1="173.58" y1="174.33" x2="133.68" y2="212.81"/>
		<line class="st6" x1="104.01" y1="212.81" x2="143.92" y2="174.33"/>
		<line class="st6" x1="232.9" y1="174.33" x2="192.99" y2="212.81"/>
		<line class="st6" x1="262.56" y1="174.33" x2="222.65" y2="212.81"/>
		<line class="st6" x1="203.24" y1="174.33" x2="163.33" y2="212.81"/>
		<line class="st6" x1="292.22" y1="174.33" x2="332.13" y2="212.81"/>
		<line class="st6" x1="410.86" y1="174.33" x2="450.76" y2="212.81"/>
		<line class="st6" x1="440.52" y1="174.33" x2="480.42" y2="212.81"/>
		<line class="st6" x1="351.54" y1="174.33" x2="391.44" y2="212.81"/>
		<line class="st6" x1="321.88" y1="174.33" x2="361.78" y2="212.81"/>
		<line class="st6" x1="381.2" y1="174.33" x2="421.1" y2="212.81"/>
		<line class="st6" x1="332.13" y1="212.81" x2="372.03" y2="251.3"/>
		<line class="st6" x1="450.76" y1="212.81" x2="490.67" y2="251.3"/>
		<line class="st6" x1="480.42" y1="212.81" x2="520.33" y2="251.3"/>
		<line class="st6" x1="391.44" y1="212.81" x2="431.35" y2="251.3"/>
		<line class="st6" x1="361.78" y1="212.81" x2="401.69" y2="251.3"/>
		<line class="st6" x1="421.1" y1="212.81" x2="461.01" y2="251.3"/>
		<line class="st6" x1="252.31" y1="212.81" x2="212.4" y2="251.3"/>
		<line class="st6" x1="133.68" y1="212.81" x2="93.77" y2="251.3"/>
		<line class="st6" x1="104.01" y1="212.81" x2="64.11" y2="251.3"/>
		<line class="st6" x1="192.99" y1="212.81" x2="153.09" y2="251.3"/>
		<line class="st6" x1="222.65" y1="212.81" x2="182.75" y2="251.3"/>
		<line class="st6" x1="163.33" y1="212.81" x2="123.43" y2="251.3"/>
		<line class="st7" x1="292.22" y1="174.33" x2="292.22" y2="251.03"/>
		<path class="st8" d="M338.07,220.87c-11.63,11.63-27.4,18.16-43.85,18.16"/>
		<g class="st9">
		</g>
		<g class="st9">
		</g>
		<g class="st9">
		</g>
		<rect x="289.59" y="132.33" class="st10" width="6.96" height="11.58"/>
		<g class="st9">
			<path id="SVGID_x5F_3_x5F_" class="st11" d="M447.99,84.22v150.84"/>
			<text>			<textPath  xlink:href="#SVGID_x5F_3_x5F_" startOffset="30.5664%">
			</textPath>
</text>
		</g>
		<polygon class="st12" points="170.55,219.36 174.7,203.87 186.05,215.22 		"/>
		<polygon class="st12" points="411.94,219.36 396.44,215.22 407.79,203.87 		"/>
		<path class="st6" d="M237.86,321.67"/>
		<g class="st9">
			<rect x="304.55" y="205.51" class="st13" width="20.43" height="10.72"/>
			<text transform="matrix(1 0 0 1 304.549 214.0255)" class="st14 st15">L</text>
			<rect x="295.29" y="195.65" class="st11" width="11" height="14.42"/>
			<text transform="matrix(1 0 0 1 295.287 208.8838)" class="st14 st16">θ</text>
		</g>
		<polygon class="st17" points="372.03,251.3 292.22,174.33 440.52,174.33 520.33,251.3 		"/>
		<polygon class="st17" points="64.11,251.3 143.92,174.33 292.22,174.33 212.4,251.3 		"/>
		<line class="st18" x1="177.1" y1="212.81" x2="204.25" y2="185.67"/>
		<polygon class="st19" points="170.55,219.36 174.7,203.87 186.05,215.22 		"/>
		<line class="st18" x1="405.39" y1="212.81" x2="378.24" y2="185.67"/>
		<polygon class="st19" points="411.94,219.36 396.44,215.22 407.79,203.87 		"/>
	</g>
</g>
<rect x="15.89" y="147.3" class="st13" width="57.49" height="25.77"/>
<text transform="matrix(1 0 0 1 15.89 160.5316)" class="st14 st16">Gold</text>
<rect x="15.89" y="206.74" class="st13" width="47.06" height="24.49"/>
<text transform="matrix(1 0 0 1 15.89 219.9691)" class="st14 st16">Glas</text>
<rect x="85.28" y="257.49" class="st13" width="134.02" height="26.96"/>
<text transform="matrix(1 0 0 1 85.2796 270.7249)" class="st14 st16">Leckstrahlung</text>
<g>
	<rect x="317.98" y="110.66" class="st13" width="57.49" height="25.77"/>
	<text transform="matrix(1 0 0 1 317.9821 123.8906)" class="st14 st16">K</text>
	<rect x="329.77" y="120" class="st13" width="20.43" height="10.72"/>
	<text transform="matrix(1 0 0 1 329.7736 128.5226)" class="st14 st15">SPP</text>
</g>
</svg>
